<mxfile host="app.diagrams.net" modified="2023-04-29T08:58:03.176Z" agent="Mozilla/5.0 (Windows NT 10.0; Win64; x64) AppleWebKit/537.36 (KHTML, like Gecko) Chrome/112.0.0.0 Safari/537.36" etag="1608jroltxGUkuSKjNmL" version="21.2.3" type="device">
  <diagram id="C5RBs43oDa-KdzZeNtuy" name="Page-1">
    <mxGraphModel dx="3754" dy="2343" grid="1" gridSize="10" guides="1" tooltips="1" connect="1" arrows="1" fold="1" page="1" pageScale="1" pageWidth="827" pageHeight="1169" math="0" shadow="0">
      <root>
        <mxCell id="WIyWlLk6GJQsqaUBKTNV-0" />
        <mxCell id="WIyWlLk6GJQsqaUBKTNV-1" parent="WIyWlLk6GJQsqaUBKTNV-0" />
        <mxCell id="asq5aeqkLsG4NxPlPV6v-11" value="" style="edgeStyle=orthogonalEdgeStyle;rounded=0;orthogonalLoop=1;jettySize=auto;html=1;" parent="WIyWlLk6GJQsqaUBKTNV-1" source="WIyWlLk6GJQsqaUBKTNV-3" target="asq5aeqkLsG4NxPlPV6v-10" edge="1">
          <mxGeometry relative="1" as="geometry" />
        </mxCell>
        <mxCell id="WIyWlLk6GJQsqaUBKTNV-3" value="Initialisierung Memory" style="rounded=1;whiteSpace=wrap;html=1;fontSize=12;glass=0;strokeWidth=1;shadow=0;" parent="WIyWlLk6GJQsqaUBKTNV-1" vertex="1">
          <mxGeometry x="-1190" y="-960" width="120" height="40" as="geometry" />
        </mxCell>
        <mxCell id="asq5aeqkLsG4NxPlPV6v-6" value="" style="endArrow=classic;html=1;rounded=0;entryX=0.5;entryY=0;entryDx=0;entryDy=0;" parent="WIyWlLk6GJQsqaUBKTNV-1" target="WIyWlLk6GJQsqaUBKTNV-3" edge="1">
          <mxGeometry width="50" height="50" relative="1" as="geometry">
            <mxPoint x="-1130" y="-1010" as="sourcePoint" />
            <mxPoint x="-950" y="-890" as="targetPoint" />
            <Array as="points">
              <mxPoint x="-1130" y="-1000" />
            </Array>
          </mxGeometry>
        </mxCell>
        <mxCell id="asq5aeqkLsG4NxPlPV6v-15" value="Ja" style="edgeStyle=orthogonalEdgeStyle;rounded=0;orthogonalLoop=1;jettySize=auto;html=1;" parent="WIyWlLk6GJQsqaUBKTNV-1" source="asq5aeqkLsG4NxPlPV6v-10" target="asq5aeqkLsG4NxPlPV6v-14" edge="1">
          <mxGeometry relative="1" as="geometry" />
        </mxCell>
        <mxCell id="asq5aeqkLsG4NxPlPV6v-18" value="Nein" style="edgeStyle=orthogonalEdgeStyle;rounded=0;orthogonalLoop=1;jettySize=auto;html=1;" parent="WIyWlLk6GJQsqaUBKTNV-1" source="asq5aeqkLsG4NxPlPV6v-10" target="asq5aeqkLsG4NxPlPV6v-17" edge="1">
          <mxGeometry relative="1" as="geometry" />
        </mxCell>
        <mxCell id="asq5aeqkLsG4NxPlPV6v-10" value="gameMode ==1" style="rhombus;whiteSpace=wrap;html=1;" parent="WIyWlLk6GJQsqaUBKTNV-1" vertex="1">
          <mxGeometry x="-1170" y="-890" width="80" height="80" as="geometry" />
        </mxCell>
        <mxCell id="asq5aeqkLsG4NxPlPV6v-12" value="match&lt;br&gt;current&lt;br&gt;Player&amp;nbsp;" style="rhombus;whiteSpace=wrap;html=1;" parent="WIyWlLk6GJQsqaUBKTNV-1" vertex="1">
          <mxGeometry x="-930" y="-890" width="80" height="80" as="geometry" />
        </mxCell>
        <mxCell id="asq5aeqkLsG4NxPlPV6v-45" value="Nein" style="edgeStyle=orthogonalEdgeStyle;rounded=0;orthogonalLoop=1;jettySize=auto;html=1;" parent="WIyWlLk6GJQsqaUBKTNV-1" source="asq5aeqkLsG4NxPlPV6v-14" target="asq5aeqkLsG4NxPlPV6v-44" edge="1">
          <mxGeometry relative="1" as="geometry">
            <mxPoint as="offset" />
          </mxGeometry>
        </mxCell>
        <mxCell id="TbK0dNEfgLr950IaKl56-1" value="Ja" style="edgeStyle=orthogonalEdgeStyle;rounded=0;orthogonalLoop=1;jettySize=auto;html=1;" parent="WIyWlLk6GJQsqaUBKTNV-1" source="asq5aeqkLsG4NxPlPV6v-14" target="TbK0dNEfgLr950IaKl56-0" edge="1">
          <mxGeometry relative="1" as="geometry">
            <Array as="points">
              <mxPoint x="-1260" y="-760" />
              <mxPoint x="-1260" y="-760" />
            </Array>
          </mxGeometry>
        </mxCell>
        <mxCell id="asq5aeqkLsG4NxPlPV6v-14" value="current&lt;br&gt;Player == 1" style="rhombus;whiteSpace=wrap;html=1;" parent="WIyWlLk6GJQsqaUBKTNV-1" vertex="1">
          <mxGeometry x="-1300" y="-890" width="80" height="80" as="geometry" />
        </mxCell>
        <mxCell id="asq5aeqkLsG4NxPlPV6v-20" value="Ja" style="edgeStyle=orthogonalEdgeStyle;rounded=0;orthogonalLoop=1;jettySize=auto;html=1;" parent="WIyWlLk6GJQsqaUBKTNV-1" source="asq5aeqkLsG4NxPlPV6v-17" target="asq5aeqkLsG4NxPlPV6v-12" edge="1">
          <mxGeometry relative="1" as="geometry" />
        </mxCell>
        <mxCell id="asq5aeqkLsG4NxPlPV6v-25" value="Nein" style="edgeStyle=orthogonalEdgeStyle;rounded=0;orthogonalLoop=1;jettySize=auto;html=1;" parent="WIyWlLk6GJQsqaUBKTNV-1" source="asq5aeqkLsG4NxPlPV6v-17" target="asq5aeqkLsG4NxPlPV6v-23" edge="1">
          <mxGeometry relative="1" as="geometry" />
        </mxCell>
        <mxCell id="asq5aeqkLsG4NxPlPV6v-17" value="gameMode ==2" style="rhombus;whiteSpace=wrap;html=1;" parent="WIyWlLk6GJQsqaUBKTNV-1" vertex="1">
          <mxGeometry x="-1040" y="-890" width="80" height="80" as="geometry" />
        </mxCell>
        <mxCell id="asq5aeqkLsG4NxPlPV6v-27" value="" style="edgeStyle=orthogonalEdgeStyle;rounded=0;orthogonalLoop=1;jettySize=auto;html=1;" parent="WIyWlLk6GJQsqaUBKTNV-1" source="asq5aeqkLsG4NxPlPV6v-23" edge="1">
          <mxGeometry relative="1" as="geometry">
            <mxPoint x="-1130" y="-1010" as="targetPoint" />
            <Array as="points">
              <mxPoint x="-1000" y="-1010" />
              <mxPoint x="-1129" y="-1010" />
              <mxPoint x="-1129" y="-1020" />
            </Array>
          </mxGeometry>
        </mxCell>
        <mxCell id="asq5aeqkLsG4NxPlPV6v-23" value="kann nicht passieren" style="rounded=1;whiteSpace=wrap;html=1;" parent="WIyWlLk6GJQsqaUBKTNV-1" vertex="1">
          <mxGeometry x="-1060" y="-940" width="120" height="20" as="geometry" />
        </mxCell>
        <mxCell id="asq5aeqkLsG4NxPlPV6v-31" value="case 1" style="endArrow=classic;html=1;rounded=0;exitX=0.5;exitY=1;exitDx=0;exitDy=0;entryX=0;entryY=0.5;entryDx=0;entryDy=0;" parent="WIyWlLk6GJQsqaUBKTNV-1" source="asq5aeqkLsG4NxPlPV6v-12" target="asq5aeqkLsG4NxPlPV6v-34" edge="1">
          <mxGeometry width="50" height="50" relative="1" as="geometry">
            <mxPoint x="-1010" y="-800" as="sourcePoint" />
            <mxPoint x="-850" y="-790" as="targetPoint" />
          </mxGeometry>
        </mxCell>
        <mxCell id="asq5aeqkLsG4NxPlPV6v-32" value="case 2" style="endArrow=classic;html=1;rounded=0;exitX=0.5;exitY=1;exitDx=0;exitDy=0;entryX=0;entryY=0.5;entryDx=0;entryDy=0;" parent="WIyWlLk6GJQsqaUBKTNV-1" source="asq5aeqkLsG4NxPlPV6v-12" target="asq5aeqkLsG4NxPlPV6v-35" edge="1">
          <mxGeometry width="50" height="50" relative="1" as="geometry">
            <mxPoint x="-1010" y="-800" as="sourcePoint" />
            <mxPoint x="-860" y="-680" as="targetPoint" />
            <Array as="points">
              <mxPoint x="-880" y="-760" />
              <mxPoint x="-880" y="-710" />
            </Array>
          </mxGeometry>
        </mxCell>
        <mxCell id="asq5aeqkLsG4NxPlPV6v-36" value="Ja" style="edgeStyle=orthogonalEdgeStyle;rounded=0;orthogonalLoop=1;jettySize=auto;html=1;exitX=1;exitY=0.5;exitDx=0;exitDy=0;entryX=0;entryY=0.5;entryDx=0;entryDy=0;" parent="WIyWlLk6GJQsqaUBKTNV-1" source="asq5aeqkLsG4NxPlPV6v-34" target="asq5aeqkLsG4NxPlPV6v-39" edge="1">
          <mxGeometry relative="1" as="geometry">
            <mxPoint x="-660" y="-799.5714285714286" as="targetPoint" />
          </mxGeometry>
        </mxCell>
        <mxCell id="asq5aeqkLsG4NxPlPV6v-37" value="Nein" style="edgeStyle=orthogonalEdgeStyle;rounded=0;orthogonalLoop=1;jettySize=auto;html=1;entryX=0;entryY=0.5;entryDx=0;entryDy=0;" parent="WIyWlLk6GJQsqaUBKTNV-1" source="asq5aeqkLsG4NxPlPV6v-34" target="asq5aeqkLsG4NxPlPV6v-38" edge="1">
          <mxGeometry relative="1" as="geometry">
            <mxPoint x="-710" y="-740" as="targetPoint" />
            <Array as="points">
              <mxPoint x="-770" y="-740" />
              <mxPoint x="-700" y="-740" />
            </Array>
          </mxGeometry>
        </mxCell>
        <mxCell id="asq5aeqkLsG4NxPlPV6v-34" value="playermanager (...) == 1" style="rhombus;whiteSpace=wrap;html=1;" parent="WIyWlLk6GJQsqaUBKTNV-1" vertex="1">
          <mxGeometry x="-810" y="-840" width="80" height="80" as="geometry" />
        </mxCell>
        <mxCell id="asq5aeqkLsG4NxPlPV6v-40" value="" style="edgeStyle=orthogonalEdgeStyle;rounded=0;orthogonalLoop=1;jettySize=auto;html=1;" parent="WIyWlLk6GJQsqaUBKTNV-1" source="asq5aeqkLsG4NxPlPV6v-35" target="asq5aeqkLsG4NxPlPV6v-43" edge="1">
          <mxGeometry relative="1" as="geometry">
            <mxPoint x="-720" y="-640" as="targetPoint" />
          </mxGeometry>
        </mxCell>
        <mxCell id="asq5aeqkLsG4NxPlPV6v-42" value="Nein" style="edgeStyle=orthogonalEdgeStyle;rounded=0;orthogonalLoop=1;jettySize=auto;html=1;entryX=0;entryY=0.5;entryDx=0;entryDy=0;" parent="WIyWlLk6GJQsqaUBKTNV-1" source="asq5aeqkLsG4NxPlPV6v-35" target="asq5aeqkLsG4NxPlPV6v-41" edge="1">
          <mxGeometry relative="1" as="geometry" />
        </mxCell>
        <mxCell id="asq5aeqkLsG4NxPlPV6v-35" value="playermanager&lt;br&gt;(...) == 2" style="rhombus;whiteSpace=wrap;html=1;" parent="WIyWlLk6GJQsqaUBKTNV-1" vertex="1">
          <mxGeometry x="-850" y="-720" width="80" height="80" as="geometry" />
        </mxCell>
        <mxCell id="asq5aeqkLsG4NxPlPV6v-38" value="Rufe nextPlayer auf" style="rounded=1;whiteSpace=wrap;html=1;" parent="WIyWlLk6GJQsqaUBKTNV-1" vertex="1">
          <mxGeometry x="-700" y="-730" width="120" height="40" as="geometry" />
        </mxCell>
        <mxCell id="asq5aeqkLsG4NxPlPV6v-39" value="return 1 zur main" style="rounded=1;whiteSpace=wrap;html=1;" parent="WIyWlLk6GJQsqaUBKTNV-1" vertex="1">
          <mxGeometry x="-660" y="-820" width="120" height="40" as="geometry" />
        </mxCell>
        <mxCell id="asq5aeqkLsG4NxPlPV6v-41" value="Rufe nextPlayer auf" style="rounded=1;whiteSpace=wrap;html=1;" parent="WIyWlLk6GJQsqaUBKTNV-1" vertex="1">
          <mxGeometry x="-790" y="-580" width="120" height="40" as="geometry" />
        </mxCell>
        <mxCell id="asq5aeqkLsG4NxPlPV6v-43" value="return 2 zur main" style="rounded=1;whiteSpace=wrap;html=1;" parent="WIyWlLk6GJQsqaUBKTNV-1" vertex="1">
          <mxGeometry x="-690" y="-660" width="120" height="40" as="geometry" />
        </mxCell>
        <mxCell id="asq5aeqkLsG4NxPlPV6v-48" value="Ja" style="edgeStyle=orthogonalEdgeStyle;rounded=0;orthogonalLoop=1;jettySize=auto;html=1;entryX=0.5;entryY=0;entryDx=0;entryDy=0;" parent="WIyWlLk6GJQsqaUBKTNV-1" source="asq5aeqkLsG4NxPlPV6v-44" target="asq5aeqkLsG4NxPlPV6v-49" edge="1">
          <mxGeometry relative="1" as="geometry">
            <mxPoint x="-1390" y="-770" as="targetPoint" />
          </mxGeometry>
        </mxCell>
        <mxCell id="asq5aeqkLsG4NxPlPV6v-44" value="current&lt;br&gt;Player == 2" style="rhombus;whiteSpace=wrap;html=1;" parent="WIyWlLk6GJQsqaUBKTNV-1" vertex="1">
          <mxGeometry x="-1430" y="-890" width="80" height="80" as="geometry" />
        </mxCell>
        <mxCell id="asq5aeqkLsG4NxPlPV6v-46" style="edgeStyle=orthogonalEdgeStyle;rounded=0;orthogonalLoop=1;jettySize=auto;html=1;exitX=0.5;exitY=1;exitDx=0;exitDy=0;" parent="WIyWlLk6GJQsqaUBKTNV-1" source="WIyWlLk6GJQsqaUBKTNV-3" target="WIyWlLk6GJQsqaUBKTNV-3" edge="1">
          <mxGeometry relative="1" as="geometry" />
        </mxCell>
        <mxCell id="asq5aeqkLsG4NxPlPV6v-52" value="Nein" style="edgeStyle=orthogonalEdgeStyle;rounded=0;orthogonalLoop=1;jettySize=auto;html=1;" parent="WIyWlLk6GJQsqaUBKTNV-1" source="asq5aeqkLsG4NxPlPV6v-49" target="asq5aeqkLsG4NxPlPV6v-51" edge="1">
          <mxGeometry relative="1" as="geometry" />
        </mxCell>
        <mxCell id="asq5aeqkLsG4NxPlPV6v-54" value="Ja" style="edgeStyle=orthogonalEdgeStyle;rounded=0;orthogonalLoop=1;jettySize=auto;html=1;" parent="WIyWlLk6GJQsqaUBKTNV-1" source="asq5aeqkLsG4NxPlPV6v-49" target="asq5aeqkLsG4NxPlPV6v-53" edge="1">
          <mxGeometry relative="1" as="geometry" />
        </mxCell>
        <mxCell id="asq5aeqkLsG4NxPlPV6v-49" value="playermanager&lt;br&gt;(...) == 2" style="rhombus;whiteSpace=wrap;html=1;" parent="WIyWlLk6GJQsqaUBKTNV-1" vertex="1">
          <mxGeometry x="-1430" y="-760" width="80" height="80" as="geometry" />
        </mxCell>
        <mxCell id="asq5aeqkLsG4NxPlPV6v-51" value="Rufe nextPlayer auf" style="rounded=1;whiteSpace=wrap;html=1;" parent="WIyWlLk6GJQsqaUBKTNV-1" vertex="1">
          <mxGeometry x="-1450" y="-640" width="120" height="40" as="geometry" />
        </mxCell>
        <mxCell id="asq5aeqkLsG4NxPlPV6v-53" value="return 2 zur main" style="rounded=1;whiteSpace=wrap;html=1;" parent="WIyWlLk6GJQsqaUBKTNV-1" vertex="1">
          <mxGeometry x="-1610" y="-740" width="120" height="40" as="geometry" />
        </mxCell>
        <mxCell id="asq5aeqkLsG4NxPlPV6v-60" value="" style="edgeStyle=orthogonalEdgeStyle;rounded=0;orthogonalLoop=1;jettySize=auto;html=1;" parent="WIyWlLk6GJQsqaUBKTNV-1" source="asq5aeqkLsG4NxPlPV6v-55" target="asq5aeqkLsG4NxPlPV6v-59" edge="1">
          <mxGeometry relative="1" as="geometry" />
        </mxCell>
        <mxCell id="asq5aeqkLsG4NxPlPV6v-55" value="Variablen initialisieren mit global und den benötigten boards" style="rounded=1;whiteSpace=wrap;html=1;" parent="WIyWlLk6GJQsqaUBKTNV-1" vertex="1">
          <mxGeometry x="-1570" y="-300" width="120" height="50" as="geometry" />
        </mxCell>
        <mxCell id="uWp80Gor8pFlcCWo-2pX-10" value="Ja" style="edgeStyle=orthogonalEdgeStyle;rounded=0;orthogonalLoop=1;jettySize=auto;html=1;" parent="WIyWlLk6GJQsqaUBKTNV-1" source="asq5aeqkLsG4NxPlPV6v-59" target="uWp80Gor8pFlcCWo-2pX-9" edge="1">
          <mxGeometry relative="1" as="geometry" />
        </mxCell>
        <mxCell id="uWp80Gor8pFlcCWo-2pX-17" value="Nein" style="edgeStyle=orthogonalEdgeStyle;rounded=0;orthogonalLoop=1;jettySize=auto;html=1;" parent="WIyWlLk6GJQsqaUBKTNV-1" source="asq5aeqkLsG4NxPlPV6v-59" target="uWp80Gor8pFlcCWo-2pX-13" edge="1">
          <mxGeometry relative="1" as="geometry" />
        </mxCell>
        <mxCell id="asq5aeqkLsG4NxPlPV6v-59" value="hitStatus == 0" style="rhombus;whiteSpace=wrap;html=1;" parent="WIyWlLk6GJQsqaUBKTNV-1" vertex="1">
          <mxGeometry x="-1550" y="-220" width="80" height="80" as="geometry" />
        </mxCell>
        <mxCell id="uWp80Gor8pFlcCWo-2pX-1" value="" style="edgeStyle=orthogonalEdgeStyle;rounded=0;orthogonalLoop=1;jettySize=auto;html=1;" parent="WIyWlLk6GJQsqaUBKTNV-1" target="WIyWlLk6GJQsqaUBKTNV-3" edge="1">
          <mxGeometry relative="1" as="geometry">
            <mxPoint x="-1130" y="-1030" as="sourcePoint" />
          </mxGeometry>
        </mxCell>
        <mxCell id="uWp80Gor8pFlcCWo-2pX-3" value="" style="edgeStyle=orthogonalEdgeStyle;rounded=0;orthogonalLoop=1;jettySize=auto;html=1;" parent="WIyWlLk6GJQsqaUBKTNV-1" source="uWp80Gor8pFlcCWo-2pX-2" target="WIyWlLk6GJQsqaUBKTNV-3" edge="1">
          <mxGeometry relative="1" as="geometry" />
        </mxCell>
        <mxCell id="uWp80Gor8pFlcCWo-2pX-2" value="shootingfunktion" style="ellipse;whiteSpace=wrap;html=1;" parent="WIyWlLk6GJQsqaUBKTNV-1" vertex="1">
          <mxGeometry x="-1180" y="-1090" width="100" height="60" as="geometry" />
        </mxCell>
        <mxCell id="uWp80Gor8pFlcCWo-2pX-12" value="" style="edgeStyle=orthogonalEdgeStyle;rounded=0;orthogonalLoop=1;jettySize=auto;html=1;" parent="WIyWlLk6GJQsqaUBKTNV-1" source="uWp80Gor8pFlcCWo-2pX-9" target="uWp80Gor8pFlcCWo-2pX-11" edge="1">
          <mxGeometry relative="1" as="geometry" />
        </mxCell>
        <mxCell id="uWp80Gor8pFlcCWo-2pX-9" value="&lt;span style=&quot;color: rgb(0, 0, 0); font-family: Helvetica; font-size: 12px; font-style: normal; font-variant-ligatures: normal; font-variant-caps: normal; font-weight: 400; letter-spacing: normal; orphans: 2; text-align: center; text-indent: 0px; text-transform: none; widows: 2; word-spacing: 0px; -webkit-text-stroke-width: 0px; background-color: rgb(251, 251, 251); text-decoration-thickness: initial; text-decoration-style: initial; text-decoration-color: initial; float: none; display: inline !important;&quot;&gt;bestimme 2 zufällige Varibalen zwischen 0 und 9 so lange bis das Feld auf das geschossen wurde noch nicht beschossen wurde&lt;/span&gt;" style="shape=process;whiteSpace=wrap;html=1;backgroundOutline=1;" parent="WIyWlLk6GJQsqaUBKTNV-1" vertex="1">
          <mxGeometry x="-1390" y="-229" width="180" height="99" as="geometry" />
        </mxCell>
        <mxCell id="uWp80Gor8pFlcCWo-2pX-11" value="Speichere die Position des Schusses" style="rounded=1;whiteSpace=wrap;html=1;" parent="WIyWlLk6GJQsqaUBKTNV-1" vertex="1">
          <mxGeometry x="-1360" y="-80" width="120" height="50" as="geometry" />
        </mxCell>
        <mxCell id="uWp80Gor8pFlcCWo-2pX-16" value="Ja" style="edgeStyle=orthogonalEdgeStyle;rounded=0;orthogonalLoop=1;jettySize=auto;html=1;" parent="WIyWlLk6GJQsqaUBKTNV-1" source="uWp80Gor8pFlcCWo-2pX-13" edge="1">
          <mxGeometry relative="1" as="geometry">
            <mxPoint x="-1510" y="14.5" as="targetPoint" />
          </mxGeometry>
        </mxCell>
        <mxCell id="uWp80Gor8pFlcCWo-2pX-13" value="hitStatus == 1" style="rhombus;whiteSpace=wrap;html=1;" parent="WIyWlLk6GJQsqaUBKTNV-1" vertex="1">
          <mxGeometry x="-1550" y="-105" width="80" height="80" as="geometry" />
        </mxCell>
        <mxCell id="uWp80Gor8pFlcCWo-2pX-23" value="Ja" style="edgeStyle=orthogonalEdgeStyle;rounded=0;orthogonalLoop=1;jettySize=auto;html=1;" parent="WIyWlLk6GJQsqaUBKTNV-1" source="uWp80Gor8pFlcCWo-2pX-18" target="uWp80Gor8pFlcCWo-2pX-22" edge="1">
          <mxGeometry relative="1" as="geometry" />
        </mxCell>
        <mxCell id="uWp80Gor8pFlcCWo-2pX-25" value="" style="edgeStyle=orthogonalEdgeStyle;rounded=0;orthogonalLoop=1;jettySize=auto;html=1;" parent="WIyWlLk6GJQsqaUBKTNV-1" source="uWp80Gor8pFlcCWo-2pX-18" target="uWp80Gor8pFlcCWo-2pX-24" edge="1">
          <mxGeometry relative="1" as="geometry" />
        </mxCell>
        <mxCell id="uWp80Gor8pFlcCWo-2pX-18" value="directionLock ==0" style="rhombus;whiteSpace=wrap;html=1;" parent="WIyWlLk6GJQsqaUBKTNV-1" vertex="1">
          <mxGeometry x="-1550" y="15" width="80" height="80" as="geometry" />
        </mxCell>
        <mxCell id="uWp80Gor8pFlcCWo-2pX-28" value="" style="edgeStyle=orthogonalEdgeStyle;rounded=0;orthogonalLoop=1;jettySize=auto;html=1;" parent="WIyWlLk6GJQsqaUBKTNV-1" source="uWp80Gor8pFlcCWo-2pX-22" target="uWp80Gor8pFlcCWo-2pX-26" edge="1">
          <mxGeometry relative="1" as="geometry" />
        </mxCell>
        <mxCell id="uWp80Gor8pFlcCWo-2pX-22" value="Setzte direction auf eine zufällige Zahl zwischen 1 und 4" style="rounded=1;whiteSpace=wrap;html=1;" parent="WIyWlLk6GJQsqaUBKTNV-1" vertex="1">
          <mxGeometry x="-1410" y="25" width="120" height="60" as="geometry" />
        </mxCell>
        <mxCell id="uWp80Gor8pFlcCWo-2pX-27" value="" style="edgeStyle=orthogonalEdgeStyle;rounded=0;orthogonalLoop=1;jettySize=auto;html=1;entryX=0.5;entryY=0;entryDx=0;entryDy=0;" parent="WIyWlLk6GJQsqaUBKTNV-1" source="uWp80Gor8pFlcCWo-2pX-24" target="uWp80Gor8pFlcCWo-2pX-26" edge="1">
          <mxGeometry relative="1" as="geometry" />
        </mxCell>
        <mxCell id="uWp80Gor8pFlcCWo-2pX-24" value="Setzte Direction auf dorection Lock" style="rounded=1;whiteSpace=wrap;html=1;" parent="WIyWlLk6GJQsqaUBKTNV-1" vertex="1">
          <mxGeometry x="-1570" y="120" width="120" height="50" as="geometry" />
        </mxCell>
        <mxCell id="uWp80Gor8pFlcCWo-2pX-26" value="match direction" style="rhombus;whiteSpace=wrap;html=1;" parent="WIyWlLk6GJQsqaUBKTNV-1" vertex="1">
          <mxGeometry x="-1390" y="170" width="80" height="80" as="geometry" />
        </mxCell>
        <mxCell id="O6i9b0CFz0b980n2ZLe3-0" value="row = row - i" style="rounded=1;whiteSpace=wrap;html=1;" parent="WIyWlLk6GJQsqaUBKTNV-1" vertex="1">
          <mxGeometry x="-1510" y="270" width="120" height="30" as="geometry" />
        </mxCell>
        <mxCell id="O6i9b0CFz0b980n2ZLe3-2" value="column = colmun -i" style="rounded=1;whiteSpace=wrap;html=1;" parent="WIyWlLk6GJQsqaUBKTNV-1" vertex="1">
          <mxGeometry x="-1510" y="320" width="120" height="30" as="geometry" />
        </mxCell>
        <mxCell id="O6i9b0CFz0b980n2ZLe3-3" value="row = row + i" style="rounded=1;whiteSpace=wrap;html=1;" parent="WIyWlLk6GJQsqaUBKTNV-1" vertex="1">
          <mxGeometry x="-1510" y="370" width="120" height="30" as="geometry" />
        </mxCell>
        <mxCell id="O6i9b0CFz0b980n2ZLe3-4" value="colmun = column + i" style="rounded=1;whiteSpace=wrap;html=1;" parent="WIyWlLk6GJQsqaUBKTNV-1" vertex="1">
          <mxGeometry x="-1510" y="420" width="120" height="30" as="geometry" />
        </mxCell>
        <mxCell id="O6i9b0CFz0b980n2ZLe3-6" value="" style="endArrow=none;html=1;rounded=0;" parent="WIyWlLk6GJQsqaUBKTNV-1" edge="1">
          <mxGeometry width="50" height="50" relative="1" as="geometry">
            <mxPoint x="-1350" y="440" as="sourcePoint" />
            <mxPoint x="-1350" y="250" as="targetPoint" />
          </mxGeometry>
        </mxCell>
        <mxCell id="O6i9b0CFz0b980n2ZLe3-7" value="Case 2" style="endArrow=classic;html=1;rounded=0;entryX=1;entryY=0.5;entryDx=0;entryDy=0;" parent="WIyWlLk6GJQsqaUBKTNV-1" target="O6i9b0CFz0b980n2ZLe3-2" edge="1">
          <mxGeometry width="50" height="50" relative="1" as="geometry">
            <mxPoint x="-1350" y="335" as="sourcePoint" />
            <mxPoint x="-1350" y="250" as="targetPoint" />
          </mxGeometry>
        </mxCell>
        <mxCell id="O6i9b0CFz0b980n2ZLe3-8" value="Case 3" style="endArrow=classic;html=1;rounded=0;entryX=1;entryY=0.5;entryDx=0;entryDy=0;" parent="WIyWlLk6GJQsqaUBKTNV-1" target="O6i9b0CFz0b980n2ZLe3-3" edge="1">
          <mxGeometry width="50" height="50" relative="1" as="geometry">
            <mxPoint x="-1350" y="385" as="sourcePoint" />
            <mxPoint x="-1350" y="250" as="targetPoint" />
          </mxGeometry>
        </mxCell>
        <mxCell id="O6i9b0CFz0b980n2ZLe3-9" value="Case 4" style="endArrow=classic;html=1;rounded=0;entryX=1;entryY=0.75;entryDx=0;entryDy=0;" parent="WIyWlLk6GJQsqaUBKTNV-1" target="O6i9b0CFz0b980n2ZLe3-4" edge="1">
          <mxGeometry width="50" height="50" relative="1" as="geometry">
            <mxPoint x="-1350" y="440" as="sourcePoint" />
            <mxPoint x="-1350" y="250" as="targetPoint" />
          </mxGeometry>
        </mxCell>
        <mxCell id="O6i9b0CFz0b980n2ZLe3-10" value="Case 1" style="endArrow=classic;html=1;rounded=0;entryX=1;entryY=0.5;entryDx=0;entryDy=0;" parent="WIyWlLk6GJQsqaUBKTNV-1" target="O6i9b0CFz0b980n2ZLe3-0" edge="1">
          <mxGeometry width="50" height="50" relative="1" as="geometry">
            <mxPoint x="-1350" y="285" as="sourcePoint" />
            <mxPoint x="-1350" y="250" as="targetPoint" />
          </mxGeometry>
        </mxCell>
        <mxCell id="O6i9b0CFz0b980n2ZLe3-11" value="i als Zählvariable fürs Schießen&lt;br&gt;directionLock für die Richtung&lt;br&gt;hitStatus für die Schussart" style="rounded=0;whiteSpace=wrap;html=1;" parent="WIyWlLk6GJQsqaUBKTNV-1" vertex="1">
          <mxGeometry x="-1420" y="-299" width="180" height="50" as="geometry" />
        </mxCell>
        <mxCell id="O6i9b0CFz0b980n2ZLe3-12" value="" style="endArrow=none;dashed=1;html=1;rounded=0;entryX=0;entryY=0.5;entryDx=0;entryDy=0;exitX=1;exitY=0.5;exitDx=0;exitDy=0;" parent="WIyWlLk6GJQsqaUBKTNV-1" source="asq5aeqkLsG4NxPlPV6v-55" target="O6i9b0CFz0b980n2ZLe3-11" edge="1">
          <mxGeometry width="50" height="50" relative="1" as="geometry">
            <mxPoint x="-1400" y="-140" as="sourcePoint" />
            <mxPoint x="-1350" y="-190" as="targetPoint" />
          </mxGeometry>
        </mxCell>
        <mxCell id="O6i9b0CFz0b980n2ZLe3-15" value="" style="endArrow=classic;html=1;rounded=0;exitX=0.5;exitY=1;exitDx=0;exitDy=0;entryX=0.5;entryY=0;entryDx=0;entryDy=0;" parent="WIyWlLk6GJQsqaUBKTNV-1" source="uWp80Gor8pFlcCWo-2pX-11" edge="1">
          <mxGeometry width="50" height="50" relative="1" as="geometry">
            <mxPoint x="-1280" y="-20" as="sourcePoint" />
            <mxPoint x="-1218" y="310" as="targetPoint" />
            <Array as="points">
              <mxPoint x="-1230" y="30" />
            </Array>
          </mxGeometry>
        </mxCell>
        <mxCell id="O6i9b0CFz0b980n2ZLe3-16" value="" style="endArrow=none;html=1;rounded=0;entryX=0;entryY=0.5;entryDx=0;entryDy=0;" parent="WIyWlLk6GJQsqaUBKTNV-1" target="O6i9b0CFz0b980n2ZLe3-0" edge="1">
          <mxGeometry width="50" height="50" relative="1" as="geometry">
            <mxPoint x="-1510" y="470" as="sourcePoint" />
            <mxPoint x="-1310" y="310" as="targetPoint" />
          </mxGeometry>
        </mxCell>
        <mxCell id="O6i9b0CFz0b980n2ZLe3-17" value="" style="endArrow=none;html=1;rounded=0;" parent="WIyWlLk6GJQsqaUBKTNV-1" edge="1">
          <mxGeometry width="50" height="50" relative="1" as="geometry">
            <mxPoint x="-1510" y="470" as="sourcePoint" />
            <mxPoint x="-1290" y="470" as="targetPoint" />
          </mxGeometry>
        </mxCell>
        <mxCell id="O6i9b0CFz0b980n2ZLe3-18" value="" style="endArrow=classic;html=1;rounded=0;entryX=0.5;entryY=0;entryDx=0;entryDy=0;" parent="WIyWlLk6GJQsqaUBKTNV-1" edge="1">
          <mxGeometry width="50" height="50" relative="1" as="geometry">
            <mxPoint x="-1290" y="470" as="sourcePoint" />
            <mxPoint x="-1218" y="310" as="targetPoint" />
            <Array as="points">
              <mxPoint x="-1290" y="310" />
            </Array>
          </mxGeometry>
        </mxCell>
        <mxCell id="O6i9b0CFz0b980n2ZLe3-20" value="match&lt;br&gt;leaked board&lt;br&gt;[row][column]" style="rhombus;whiteSpace=wrap;html=1;" parent="WIyWlLk6GJQsqaUBKTNV-1" vertex="1">
          <mxGeometry x="-1266" y="310" width="96" height="100" as="geometry" />
        </mxCell>
        <mxCell id="O6i9b0CFz0b980n2ZLe3-39" value="" style="edgeStyle=orthogonalEdgeStyle;rounded=0;orthogonalLoop=1;jettySize=auto;html=1;entryX=0.5;entryY=0;entryDx=0;entryDy=0;" parent="WIyWlLk6GJQsqaUBKTNV-1" source="O6i9b0CFz0b980n2ZLe3-21" edge="1">
          <mxGeometry relative="1" as="geometry">
            <mxPoint x="-1260" y="610" as="targetPoint" />
          </mxGeometry>
        </mxCell>
        <mxCell id="O6i9b0CFz0b980n2ZLe3-21" value="Setzte hitStatus auf 1" style="rounded=1;whiteSpace=wrap;html=1;" parent="WIyWlLk6GJQsqaUBKTNV-1" vertex="1">
          <mxGeometry x="-1340" y="520" width="120" height="30" as="geometry" />
        </mxCell>
        <mxCell id="O6i9b0CFz0b980n2ZLe3-30" value="" style="edgeStyle=orthogonalEdgeStyle;rounded=0;orthogonalLoop=1;jettySize=auto;html=1;" parent="WIyWlLk6GJQsqaUBKTNV-1" source="O6i9b0CFz0b980n2ZLe3-22" edge="1">
          <mxGeometry relative="1" as="geometry">
            <mxPoint x="-990" y="445" as="targetPoint" />
          </mxGeometry>
        </mxCell>
        <mxCell id="O6i9b0CFz0b980n2ZLe3-22" value="Ausgabe Wassertreffer, markieren des Feldes und ausgabe des boards" style="rounded=1;whiteSpace=wrap;html=1;" parent="WIyWlLk6GJQsqaUBKTNV-1" vertex="1">
          <mxGeometry x="-1160" y="410" width="120" height="70" as="geometry" />
        </mxCell>
        <mxCell id="O6i9b0CFz0b980n2ZLe3-25" value="" style="endArrow=none;html=1;rounded=0;entryX=0.5;entryY=1;entryDx=0;entryDy=0;" parent="WIyWlLk6GJQsqaUBKTNV-1" edge="1">
          <mxGeometry width="50" height="50" relative="1" as="geometry">
            <mxPoint x="-1220" y="490" as="sourcePoint" />
            <mxPoint x="-1218" y="410" as="targetPoint" />
          </mxGeometry>
        </mxCell>
        <mxCell id="O6i9b0CFz0b980n2ZLe3-26" value="Case 1" style="endArrow=classic;html=1;rounded=0;entryX=1;entryY=0.5;entryDx=0;entryDy=0;" parent="WIyWlLk6GJQsqaUBKTNV-1" target="O6i9b0CFz0b980n2ZLe3-21" edge="1">
          <mxGeometry width="50" height="50" relative="1" as="geometry">
            <mxPoint x="-1220" y="490" as="sourcePoint" />
            <mxPoint x="-1100" y="500" as="targetPoint" />
          </mxGeometry>
        </mxCell>
        <mxCell id="O6i9b0CFz0b980n2ZLe3-28" value="Case 0" style="endArrow=classic;html=1;rounded=0;entryX=0;entryY=0.5;entryDx=0;entryDy=0;" parent="WIyWlLk6GJQsqaUBKTNV-1" target="O6i9b0CFz0b980n2ZLe3-22" edge="1">
          <mxGeometry width="50" height="50" relative="1" as="geometry">
            <mxPoint x="-1220" y="420" as="sourcePoint" />
            <mxPoint x="-1100" y="500" as="targetPoint" />
          </mxGeometry>
        </mxCell>
        <mxCell id="O6i9b0CFz0b980n2ZLe3-33" value="" style="edgeStyle=orthogonalEdgeStyle;rounded=0;orthogonalLoop=1;jettySize=auto;html=1;" parent="WIyWlLk6GJQsqaUBKTNV-1" source="O6i9b0CFz0b980n2ZLe3-31" target="O6i9b0CFz0b980n2ZLe3-32" edge="1">
          <mxGeometry relative="1" as="geometry" />
        </mxCell>
        <mxCell id="O6i9b0CFz0b980n2ZLe3-31" value="directionLock != 0" style="rhombus;whiteSpace=wrap;html=1;" parent="WIyWlLk6GJQsqaUBKTNV-1" vertex="1">
          <mxGeometry x="-870" y="405" width="80" height="80" as="geometry" />
        </mxCell>
        <mxCell id="O6i9b0CFz0b980n2ZLe3-35" value="" style="edgeStyle=orthogonalEdgeStyle;rounded=0;orthogonalLoop=1;jettySize=auto;html=1;" parent="WIyWlLk6GJQsqaUBKTNV-1" source="O6i9b0CFz0b980n2ZLe3-32" target="O6i9b0CFz0b980n2ZLe3-34" edge="1">
          <mxGeometry relative="1" as="geometry" />
        </mxCell>
        <mxCell id="O6i9b0CFz0b980n2ZLe3-32" value="Schieße in die entgegen gesetzte Richtung" style="rounded=1;whiteSpace=wrap;html=1;" parent="WIyWlLk6GJQsqaUBKTNV-1" vertex="1">
          <mxGeometry x="-910" y="515" width="120" height="50" as="geometry" />
        </mxCell>
        <mxCell id="O6i9b0CFz0b980n2ZLe3-34" value="Rufe nextPlayer auf" style="whiteSpace=wrap;html=1;rounded=1;" parent="WIyWlLk6GJQsqaUBKTNV-1" vertex="1">
          <mxGeometry x="-910" y="599" width="120" height="55" as="geometry" />
        </mxCell>
        <mxCell id="O6i9b0CFz0b980n2ZLe3-37" value="" style="edgeStyle=orthogonalEdgeStyle;rounded=0;orthogonalLoop=1;jettySize=auto;html=1;" parent="WIyWlLk6GJQsqaUBKTNV-1" source="O6i9b0CFz0b980n2ZLe3-36" target="O6i9b0CFz0b980n2ZLe3-31" edge="1">
          <mxGeometry relative="1" as="geometry" />
        </mxCell>
        <mxCell id="O6i9b0CFz0b980n2ZLe3-36" value="setze shooting-Repeater auf False und i auf 0" style="rounded=1;whiteSpace=wrap;html=1;" parent="WIyWlLk6GJQsqaUBKTNV-1" vertex="1">
          <mxGeometry x="-990" y="415" width="90" height="60" as="geometry" />
        </mxCell>
        <mxCell id="O6i9b0CFz0b980n2ZLe3-47" value="" style="edgeStyle=orthogonalEdgeStyle;rounded=0;orthogonalLoop=1;jettySize=auto;html=1;" parent="WIyWlLk6GJQsqaUBKTNV-1" target="O6i9b0CFz0b980n2ZLe3-46" edge="1">
          <mxGeometry relative="1" as="geometry">
            <mxPoint x="-1260" y="670" as="sourcePoint" />
          </mxGeometry>
        </mxCell>
        <mxCell id="O6i9b0CFz0b980n2ZLe3-40" value="überprüfe welches Schiff getroffen wurde und ziehe das Feld vom schiff ab" style="shape=process;whiteSpace=wrap;html=1;backgroundOutline=1;size=0.07142857142857142;" parent="WIyWlLk6GJQsqaUBKTNV-1" vertex="1">
          <mxGeometry x="-1340" y="610" width="160" height="60" as="geometry" />
        </mxCell>
        <mxCell id="O6i9b0CFz0b980n2ZLe3-49" value="" style="edgeStyle=orthogonalEdgeStyle;rounded=0;orthogonalLoop=1;jettySize=auto;html=1;" parent="WIyWlLk6GJQsqaUBKTNV-1" source="O6i9b0CFz0b980n2ZLe3-46" target="O6i9b0CFz0b980n2ZLe3-48" edge="1">
          <mxGeometry relative="1" as="geometry" />
        </mxCell>
        <mxCell id="O6i9b0CFz0b980n2ZLe3-46" value=", wenn das der 2. treffer auf dem schiff ist wir die Richtung gespeichert,&amp;nbsp;" style="rounded=1;whiteSpace=wrap;html=1;" parent="WIyWlLk6GJQsqaUBKTNV-1" vertex="1">
          <mxGeometry x="-1320" y="690" width="120" height="60" as="geometry" />
        </mxCell>
        <mxCell id="O6i9b0CFz0b980n2ZLe3-51" value="" style="edgeStyle=orthogonalEdgeStyle;rounded=0;orthogonalLoop=1;jettySize=auto;html=1;" parent="WIyWlLk6GJQsqaUBKTNV-1" source="O6i9b0CFz0b980n2ZLe3-48" target="O6i9b0CFz0b980n2ZLe3-50" edge="1">
          <mxGeometry relative="1" as="geometry" />
        </mxCell>
        <mxCell id="O6i9b0CFz0b980n2ZLe3-48" value="&lt;span style=&quot;color: rgb(0, 0, 0); font-family: Helvetica; font-size: 12px; font-style: normal; font-variant-ligatures: normal; font-variant-caps: normal; font-weight: 400; letter-spacing: normal; orphans: 2; text-align: center; text-indent: 0px; text-transform: none; widows: 2; word-spacing: 0px; -webkit-text-stroke-width: 0px; background-color: rgb(251, 251, 251); text-decoration-thickness: initial; text-decoration-style: initial; text-decoration-color: initial; float: none; display: inline !important;&quot;&gt;wenn das Schiff versenkt ist werden alle&amp;nbsp; Felder auf &quot;Versenkt&quot; geändert&lt;/span&gt;" style="whiteSpace=wrap;html=1;rounded=1;" parent="WIyWlLk6GJQsqaUBKTNV-1" vertex="1">
          <mxGeometry x="-1320" y="780" width="120" height="60" as="geometry" />
        </mxCell>
        <mxCell id="O6i9b0CFz0b980n2ZLe3-53" value="" style="edgeStyle=orthogonalEdgeStyle;rounded=0;orthogonalLoop=1;jettySize=auto;html=1;" parent="WIyWlLk6GJQsqaUBKTNV-1" source="O6i9b0CFz0b980n2ZLe3-50" target="O6i9b0CFz0b980n2ZLe3-52" edge="1">
          <mxGeometry relative="1" as="geometry" />
        </mxCell>
        <mxCell id="O6i9b0CFz0b980n2ZLe3-50" value="hitStatus und directionLock werden zurückgesetzt" style="whiteSpace=wrap;html=1;rounded=1;" parent="WIyWlLk6GJQsqaUBKTNV-1" vertex="1">
          <mxGeometry x="-1320" y="870" width="120" height="60" as="geometry" />
        </mxCell>
        <mxCell id="O6i9b0CFz0b980n2ZLe3-52" value="es darf erneut geschossen werden&amp;nbsp;&lt;br&gt;(funktion wird erneut aufgerufen)" style="whiteSpace=wrap;html=1;rounded=1;" parent="WIyWlLk6GJQsqaUBKTNV-1" vertex="1">
          <mxGeometry x="-1320" y="960" width="120" height="60" as="geometry" />
        </mxCell>
        <mxCell id="TbK0dNEfgLr950IaKl56-0" value="rufe cpuManager auf" style="rounded=1;whiteSpace=wrap;html=1;" parent="WIyWlLk6GJQsqaUBKTNV-1" vertex="1">
          <mxGeometry x="-1310" y="-770" width="120" height="40" as="geometry" />
        </mxCell>
        <mxCell id="oHOY6Fld0vaV2GZALBB3-2" value="" style="edgeStyle=orthogonalEdgeStyle;rounded=0;orthogonalLoop=1;jettySize=auto;html=1;" parent="WIyWlLk6GJQsqaUBKTNV-1" source="oHOY6Fld0vaV2GZALBB3-1" target="asq5aeqkLsG4NxPlPV6v-55" edge="1">
          <mxGeometry relative="1" as="geometry" />
        </mxCell>
        <mxCell id="oHOY6Fld0vaV2GZALBB3-1" value="cpuManager" style="ellipse;whiteSpace=wrap;html=1;" parent="WIyWlLk6GJQsqaUBKTNV-1" vertex="1">
          <mxGeometry x="-1570" y="-430" width="120" height="80" as="geometry" />
        </mxCell>
      </root>
    </mxGraphModel>
  </diagram>
</mxfile>
